<?xml version="1.0" encoding="UTF-8" standalone="no"?>
<svg
   xmlns:dc="http://purl.org/dc/elements/1.1/"
   xmlns:cc="http://creativecommons.org/ns#"
   xmlns:rdf="http://www.w3.org/1999/02/22-rdf-syntax-ns#"
   xmlns:svg="http://www.w3.org/2000/svg"
   xmlns="http://www.w3.org/2000/svg"
   xmlns:sodipodi="http://sodipodi.sourceforge.net/DTD/sodipodi-0.dtd"
   xmlns:inkscape="http://www.inkscape.org/namespaces/inkscape"
   viewBox="0 0 1138.2 320.4"
   version="1.1"
   id="svg16"
   sodipodi:docname="funmolsim2019-hor.svg"
   inkscape:version="0.92.2 2405546, 2018-03-11">
  <metadata
     id="metadata22">
    <rdf:RDF>
      <cc:Work
         rdf:about="">
        <dc:format>image/svg+xml</dc:format>
        <dc:type
           rdf:resource="http://purl.org/dc/dcmitype/StillImage" />
        <dc:title />
      </cc:Work>
    </rdf:RDF>
  </metadata>
  <defs
     id="defs20" />
  <sodipodi:namedview
     pagecolor="#ffffff"
     bordercolor="#666666"
     borderopacity="1"
     objecttolerance="10"
     gridtolerance="10"
     guidetolerance="10"
     inkscape:pageopacity="0"
     inkscape:pageshadow="2"
     inkscape:window-width="1916"
     inkscape:window-height="1027"
     id="namedview18"
     showgrid="false"
     inkscape:pagecheckerboard="true"
     inkscape:zoom="1.5340011"
     inkscape:cx="630.53991"
     inkscape:cy="108.31184"
     inkscape:window-x="0"
     inkscape:window-y="51"
     inkscape:window-maximized="0"
     inkscape:current-layer="svg16" />
  <style
     id="style10">.st0{fill:#fff}</style>
  <path
     d="M242.1 101.4c-3.2-.4-6.4-.6-9.7-.6-3.7 0-7.4.3-11 .8-26.3 3.5-48.6 19.4-60.9 41.7-2.1 3.8-3.9 7.9-5.4 12-12.9-17.7-32.7-30.1-55.5-33.1-3.6-.5-7.3-.8-11-.8-3.3 0-6.5.2-9.7.6-.4 3.2-.6 6.4-.6 9.7 0 3.7.3 7.4.8 11 4.9 36.6 33.9 65.5 70.4 70.4.2 0 .5.1.7.1v72.6h20.6v-93.1c.2 0 .5-.1.7-.1 36.6-4.9 65.5-33.9 70.4-70.4.5-3.6.8-7.3.8-11 0-3.4-.2-6.6-.6-9.8zM95.4 55.9c2.7 2.7 6.9 3.3 10.4 1.5 16.2-8.6 34.8-13.5 54.4-13.5 16.9 0 33 3.7 47.6 10.2 3.3 1.5 7.2.8 9.8-1.8l19.7-19.7c4.2-4.2 3.1-11.2-2.1-14C212.8 6.8 187.3 0 160.2 0c-30.1 0-58.3 8.4-82.4 22.9-4.9 3-5.7 9.7-1.7 13.8l19.3 19.2zm188.4 20.3l-19.3 19.3c-2.7 2.7-3.3 6.9-1.5 10.4 8.6 16.2 13.5 34.8 13.5 54.4s-4.9 38.2-13.5 54.4c-1.8 3.4-1.2 7.6 1.5 10.4l19.3 19.3c4 4 10.8 3.2 13.8-1.7 14.5-24.1 22.9-52.2 22.9-82.3s-8.4-58.3-22.9-82.3c-3-5.1-9.8-6-13.8-1.9z"
     class="st0"
     id="path12" />
  <path
     d="m 217.6,268.1 c -2.6,-2.6 -6.5,-3.3 -9.8,-1.8 -14.5,6.5 -30.6,10.2 -47.6,10.2 -19.6,0 -38.2,-4.9 -54.4,-13.5 -3.4,-1.8 -7.6,-1.2 -10.4,1.5 l -19.3,19.3 c -4,4 -3.2,10.8 1.7,13.8 24.1,14.5 52.2,22.9 82.4,22.9 27.1,0 52.6,-6.8 75,-18.7 5.2,-2.8 6.3,-9.8 2.1,-14 z M 52.3,217.6 c 2.6,-2.6 3.3,-6.5 1.8,-9.8 -6.5,-14.5 -10.2,-30.6 -10.2,-47.6 0,-17 3.7,-33 10.2,-47.6 1.5,-3.3 0.8,-7.2 -1.8,-9.8 L 32.7,83.2 C 28.5,79 21.5,80.1 18.7,85.3 6.8,107.6 0,133.1 0,160.2 c 0,27.1 6.8,52.6 18.7,75 2.8,5.2 9.8,6.3 14,2.1 z"
     class="st0"
     id="path14"
     inkscape:connector-curvature="0"
     style="fill:#ffffff"
     sodipodi:nodetypes="scsccscscssccscsscsccc" />
  <flowRoot
     xml:space="preserve"
     id="flowRoot48"
     style="fill:black;fill-opacity:1;stroke:none;font-family:sans-serif;font-style:normal;font-weight:normal;font-size:96px;line-height:1.25;letter-spacing:0px;word-spacing:0px"><flowRegion
       id="flowRegion50"><rect
         id="rect52"
         width="805.73602"
         height="310.29965"
         x="322.03366"
         y="5.5371208" /></flowRegion><flowPara
       id="flowPara54" /></flowRoot>  <text
     xml:space="preserve"
     style="font-style:normal;font-weight:normal;font-size:96px;line-height:0;font-family:sans-serif;letter-spacing:0px;word-spacing:0px;fill:#000000;fill-opacity:1;stroke:none"
     x="716.70557"
     y="68.770454"
     id="text58"><tspan
       sodipodi:role="line"
       x="716.70557"
       y="93.707954"
       style="font-style:normal;font-variant:normal;font-weight:normal;font-stretch:normal;font-size:133.33332825px;line-height:0;font-family:'Hoefler Text Black';-inkscape-font-specification:'Hoefler Text Black, ';text-align:center;letter-spacing:1.74000096px;text-anchor:middle;fill:#ffffff"
       id="tspan60" /><tspan
       sodipodi:role="line"
       x="716.70557"
       y="93.707954"
       style="font-style:normal;font-variant:normal;font-weight:normal;font-stretch:normal;font-size:133.33332825px;line-height:0;font-family:'Hoefler Text Black';-inkscape-font-specification:'Hoefler Text Black, ';text-align:center;letter-spacing:1.74000096px;text-anchor:middle;fill:#ffffff"
       id="tspan64" /><tspan
       sodipodi:role="line"
       x="716.70557"
       y="93.707954"
       style="font-style:normal;font-variant:normal;font-weight:normal;font-stretch:normal;font-size:133.33332825px;line-height:0;font-family:'Hoefler Text Black';-inkscape-font-specification:'Hoefler Text Black, ';text-align:center;letter-spacing:1.74000096px;text-anchor:middle;fill:#ffffff"
       id="tspan66" /><tspan
       sodipodi:role="line"
       x="716.70557"
       y="93.707954"
       style="font-style:normal;font-variant:normal;font-weight:normal;font-stretch:normal;font-size:133.33332825px;line-height:0;font-family:'Hoefler Text Black';-inkscape-font-specification:'Hoefler Text Black, ';text-align:center;letter-spacing:1.74000096px;text-anchor:middle;fill:#ffffff"
       id="tspan68" /><tspan
       sodipodi:role="line"
       x="717.57556"
       y="93.707954"
       style="font-style:normal;font-variant:normal;font-weight:normal;font-stretch:normal;font-size:106.66666412px;line-height:0;font-family:'Hoefler Text Black';-inkscape-font-specification:'Hoefler Text Black, ';text-align:center;letter-spacing:1.74000096px;text-anchor:middle;fill:#ffffff"
       id="tspan140">Fundamentals</tspan><tspan
       sodipodi:role="line"
       x="716.70557"
       y="93.814148"
       style="font-style:normal;font-variant:normal;font-weight:normal;font-stretch:normal;font-size:106.66666412px;line-height:0;font-family:'Hoefler Text Black';-inkscape-font-specification:'Hoefler Text Black, ';text-align:center;letter-spacing:1.74000096px;text-anchor:middle;fill:#ffffff"
       id="tspan138" /></text>
  <text
     xml:space="preserve"
     style="font-style:normal;font-weight:normal;font-size:96px;line-height:0;font-family:sans-serif;letter-spacing:0px;word-spacing:0px;fill:#000000;fill-opacity:1;stroke:none"
     x="719.39905"
     y="180.3069"
     id="text58-9"><tspan
       sodipodi:role="line"
       x="719.39905"
       y="205.2444"
       style="font-style:normal;font-variant:normal;font-weight:normal;font-stretch:normal;font-size:133.33332825px;line-height:0;font-family:'Hoefler Text Black';-inkscape-font-specification:'Hoefler Text Black, ';text-align:center;letter-spacing:1.74000096px;text-anchor:middle;fill:#ffffff"
       id="tspan60-1" /><tspan
       sodipodi:role="line"
       x="719.39905"
       y="205.2444"
       style="font-style:normal;font-variant:normal;font-weight:normal;font-stretch:normal;font-size:133.33332825px;line-height:0;font-family:'Hoefler Text Black';-inkscape-font-specification:'Hoefler Text Black, ';text-align:center;letter-spacing:1.74000096px;text-anchor:middle;fill:#ffffff"
       id="tspan64-9" /><tspan
       sodipodi:role="line"
       x="719.39905"
       y="205.2444"
       style="font-style:normal;font-variant:normal;font-weight:normal;font-stretch:normal;font-size:133.33332825px;line-height:0;font-family:'Hoefler Text Black';-inkscape-font-specification:'Hoefler Text Black, ';text-align:center;letter-spacing:1.74000096px;text-anchor:middle;fill:#ffffff"
       id="tspan66-4" /><tspan
       sodipodi:role="line"
       x="719.39905"
       y="205.2444"
       style="font-style:normal;font-variant:normal;font-weight:normal;font-stretch:normal;font-size:133.33332825px;line-height:0;font-family:'Hoefler Text Black';-inkscape-font-specification:'Hoefler Text Black, ';text-align:center;letter-spacing:1.74000096px;text-anchor:middle;fill:#ffffff"
       id="tspan68-2" /><tspan
       sodipodi:role="line"
       x="720.26904"
       y="205.2444"
       style="font-style:normal;font-variant:normal;font-weight:normal;font-stretch:normal;font-size:106.66666412px;line-height:0;font-family:'Hoefler Text Black';-inkscape-font-specification:'Hoefler Text Black, ';text-align:center;letter-spacing:1.74000096px;text-anchor:middle;fill:#ffffff"
       id="tspan140-0">Of Molecular</tspan><tspan
       sodipodi:role="line"
       x="719.39905"
       y="205.35059"
       style="font-style:normal;font-variant:normal;font-weight:normal;font-stretch:normal;font-size:106.66666412px;line-height:0;font-family:'Hoefler Text Black';-inkscape-font-specification:'Hoefler Text Black, ';text-align:center;letter-spacing:1.74000096px;text-anchor:middle;fill:#ffffff"
       id="tspan138-6" /></text>
  <text
     xml:space="preserve"
     style="font-style:normal;font-weight:normal;font-size:96px;line-height:0;font-family:sans-serif;letter-spacing:0px;word-spacing:0px;fill:#000000;fill-opacity:1;stroke:none"
     x="723.96228"
     y="284.60931"
     id="text58-5"><tspan
       sodipodi:role="line"
       x="723.96228"
       y="309.54681"
       style="font-style:normal;font-variant:normal;font-weight:normal;font-stretch:normal;font-size:133.33332825px;line-height:0;font-family:'Hoefler Text Black';-inkscape-font-specification:'Hoefler Text Black, ';text-align:center;letter-spacing:1.74000096px;text-anchor:middle;fill:#ffffff"
       id="tspan60-9" /><tspan
       sodipodi:role="line"
       x="723.96228"
       y="309.54681"
       style="font-style:normal;font-variant:normal;font-weight:normal;font-stretch:normal;font-size:133.33332825px;line-height:0;font-family:'Hoefler Text Black';-inkscape-font-specification:'Hoefler Text Black, ';text-align:center;letter-spacing:1.74000096px;text-anchor:middle;fill:#ffffff"
       id="tspan64-5" /><tspan
       sodipodi:role="line"
       x="723.96228"
       y="309.54681"
       style="font-style:normal;font-variant:normal;font-weight:normal;font-stretch:normal;font-size:133.33332825px;line-height:0;font-family:'Hoefler Text Black';-inkscape-font-specification:'Hoefler Text Black, ';text-align:center;letter-spacing:1.74000096px;text-anchor:middle;fill:#ffffff"
       id="tspan66-6" /><tspan
       sodipodi:role="line"
       x="723.96228"
       y="309.54681"
       style="font-style:normal;font-variant:normal;font-weight:normal;font-stretch:normal;font-size:133.33332825px;line-height:0;font-family:'Hoefler Text Black';-inkscape-font-specification:'Hoefler Text Black, ';text-align:center;letter-spacing:1.74000096px;text-anchor:middle;fill:#ffffff"
       id="tspan68-1" /><tspan
       sodipodi:role="line"
       x="724.83228"
       y="309.54681"
       style="font-style:normal;font-variant:normal;font-weight:normal;font-stretch:normal;font-size:106.66666412px;line-height:0;font-family:'Hoefler Text Black';-inkscape-font-specification:'Hoefler Text Black, ';text-align:center;letter-spacing:1.74000096px;text-anchor:middle;fill:#ffffff"
       id="tspan140-1">Simulations</tspan><tspan
       sodipodi:role="line"
       x="723.96228"
       y="309.65302"
       style="font-style:normal;font-variant:normal;font-weight:normal;font-stretch:normal;font-size:106.66666412px;line-height:0;font-family:'Hoefler Text Black';-inkscape-font-specification:'Hoefler Text Black, ';text-align:center;letter-spacing:1.74000096px;text-anchor:middle;fill:#ffffff"
       id="tspan138-4" /></text>
</svg>
